<?xml version="1.0" encoding="UTF-8"?>
<svg width="0px" height="0px" version="1.1" viewBox="0 0 700 700" xmlns="http://www.w3.org/2000/svg">
 <path d="m350 560c-154.64 0-280-125.36-280-280s125.36-280 280-280 280 125.36 280 280-125.36 280-280 280zm0-50.91c126.52 0 229.09-102.57 229.09-229.09s-102.57-229.09-229.09-229.09-229.09 102.57-229.09 229.09 102.57 229.09 229.09 229.09zm-18-312.91 36-35.996 119.82 119.82-119.82 119.82-36-35.996 83.82-83.82zm-101.82 0 35.996-35.996 119.82 119.82-119.82 119.82-35.996-35.996 83.816-83.82z"/>
</svg>
